<svg xmlns="http://www.w3.org/2000/svg" xmlns:xlink="http://www.w3.org/1999/xlink" width="100.0" height="100.0" viewBox="2.153689988851058 41.38451897751976 0.027559856633168955 0.019174156128286768" preserveAspectRatio="xMinYMin meet"><g transform="matrix(1,0,0,-1,0,82.78821211116781)"><path fill-rule="evenodd" fill="#66cc99" stroke="#555555" stroke-width="0.0005511971326633791" opacity="0.6" d="M 2.170908900255218,41.401817268809324 L 2.172206072548871,41.400828984304354 L 2.172972089509259,41.40024663706243 L 2.173324546710174,41.39998087281203 L 2.174081255295101,41.39941027801714 L 2.174290414258067,41.3992532023073 L 2.174736461722632,41.39891327101018 L 2.17502985790613,41.39868811595614 L 2.175421918027025,41.398396813639074 L 2.175792984315177,41.39812319442101 L 2.176098351600085,41.39788920492794 L 2.176559284742253,41.397542689472814 L 2.176568767596698,41.397535371190806 L 2.177005352853678,41.39719829967414 L 2.177055261505829,41.39716212223972 L 2.177124050213919,41.397110487832144 L 2.177395968113321,41.39690253047953 L 2.177644397184748,41.39671491466947 L 2.17781196226576,41.39659358317011 L 2.177461043905744,41.39632559705478 L 2.177053052037103,41.396030512448554 L 2.176684656929602,41.39574122232022 L 2.176030635356843,41.3952530900745 L 2.176042800681903,41.39524456602206 L 2.176069998345771,41.39521835079353 L 2.176083032601213,41.395204482504 L 2.17609602219227,41.39519036168311 L 2.176109016081306,41.39517495281899 L 2.176121202766192,41.39515905176841 L 2.176132533152634,41.39514275726264 L 2.176142959966247,41.3951260239259 L 2.176152457466048,41.39510899569415 L 2.176161025880099,41.39509165455424 L 2.176168604836052,41.39507404511164 L 2.176175181577646,41.39505623032766 L 2.176180743576128,41.3950382551503 L 2.176185301997083,41.39502018271218 L 2.176196033451426,41.39498500419046 L 2.176202606081405,41.39494572450147 L 2.176201873666112,41.39492604687643 L 2.176200104619321,41.39490510077922 L 2.17619733052281,41.39488417450857 L 2.176193575640362,41.394863241215575 L 2.176188791106114,41.394842381617785 L 2.176183024423139,41.39482162307771 L 2.176176275023701,41.39480101062864 L 2.176168518873356,41.3947805531058 L 2.176159826373081,41.39476035910308 L 2.176150150135357,41.394740392250974 L 2.176139560902194,41.39472073412328 L 2.176128034411494,41.39470141156854 L 2.176115665895315,41.39468246129836 L 2.17610245489923,41.39466391933922 L 2.176088425117804,41.39464580387552 L 2.17606991401427,41.394626395270016 L 2.176048662144628,41.394604264784554 L 2.176023927753564,41.39458131669594 L 2.175997220211324,41.394559273236446 L 2.175985605358425,41.39455074102051 L 2.175993286344342,41.394544941152425 L 2.17679590153061,41.39393920301219 L 2.176799609134489,41.39393640118247 L 2.177930749984583,41.39308265943145 L 2.17793446956503,41.39307984864262 L 2.179059373488841,41.3922307889954 L 2.17906060534306,41.392229851996305 L 2.180214027363635,41.391359213195166 L 2.180229110053369,41.39134782527328 L 2.179859179894687,41.391052194684505 L 2.177490084359251,41.3901639156194 L 2.177392417503349,41.39009153206711 L 2.175850816864573,41.38894897097363 L 2.173757538549923,41.38894845988471 L 2.173408853054215,41.38894837134461 L 2.172765375273975,41.38847424493633 L 2.172762175347235,41.388470599110526 L 2.171702322751796,41.38726300033842 L 2.171510191088967,41.38704408030611 L 2.171335976383983,41.386949579129805 L 2.17113803945272,41.38684220801977 L 2.170284247887462,41.38587855967321 L 2.170133021072095,41.38576560479823 L 2.16996327720245,41.385666534542125 L 2.169768906400506,41.38557368528371 L 2.169358344440711,41.38553971295062 L 2.164713785844913,41.38593019761458 L 2.16416813603317,41.38634212107179 L 2.165392235959263,41.387256417030436 L 2.165111047313345,41.3874586007568 L 2.164123749853817,41.38818911259655 L 2.162984326644295,41.38905178345865 L 2.161865653763127,41.3899001459584 L 2.161864627456717,41.38990089511294 L 2.160731374887053,41.390749698661175 L 2.160729188228489,41.39075138512955 L 2.159606293931444,41.39159975754988 L 2.159598468799919,41.39160551924161 L 2.15847064368393,41.39245459199879 L 2.157355315847636,41.393306213091876 L 2.156229280179519,41.394174228380315 L 2.1562114347053,41.3941879870717 L 2.155112793348449,41.39502978575793 L 2.154710724281916,41.395317932342074 L 2.155710715849695,41.39557093762824 L 2.155904348799861,41.39561993769378 L 2.158651313819739,41.396315028189136 L 2.159226474037774,41.396460556459395 L 2.159545496476451,41.396700095037865 L 2.161572967757531,41.39822236641799 L 2.161597023139445,41.39824042698059 L 2.161841343057058,41.39842386019204 L 2.162908155711874,41.399224797388065 L 2.164108393773839,41.40012587190628 L 2.165248230542722,41.400981565381066 L 2.166218154386184,41.40170967640378 L 2.16622469293711,41.40170475615721 L 2.167353488143064,41.400855340237875 L 2.168664993104692,41.40183820368251 L 2.169778032664533,41.40267239821719 L 2.170127647104217,41.402404770573526 L 2.170393641606455,41.40220702884267 L 2.170718226080838,41.40196069004314 L 2.170908900255218,41.401817268809324 z" /></g></svg>